Coordinates
version=1
nRows=9
nColumns=24
inDegrees=yes

Units are S.I. units (second, meters, Newtons, ...)
Angles are in degrees.

endheader
time	pelvis_tilt	pelvis_list	pelvis_rotation	pelvis_tx	pelvis_ty	pelvis_tz	hip_flexion_r	hip_adduction_r	hip_rotation_r	knee_angle_r	ankle_angle_r	subtalar_angle_r	mtp_angle_r	hip_flexion_l	hip_adduction_l	hip_rotation_l	knee_angle_l	ankle_angle_l	subtalar_angle_l	mtp_angle_l	lumbar_extension	lumbar_bending	lumbar_rotation
      1.17050000	     -1.36131733	     -3.37257149	     -2.16489449	     -0.06249376	      1.00144858	      0.35221914	    -15.18588847	      7.38388346	      3.97929673	     -6.76258109	     15.96624821	     -2.35351958	      1.77341012	     21.92223500	     -4.23014616	      0.88151335	      7.77184864	      1.67934961	     -7.37279493	     -0.78099703	     -1.90025324	      1.26905770	      7.17838178
      1.17466667	     -1.31638997	     -3.17964997	     -2.25902416	     -0.05675463	      1.00073554	      0.35176831	    -15.32403632	      7.11152043	      3.83114819	     -7.28277253	     16.29814037	     -1.99534848	      1.72630307	     22.02058197	     -3.97689420	      0.95166961	      7.05450468	      1.87834012	     -7.32728078	     -0.63422897	     -1.89781585	      1.03967724	      7.41237318
      1.17883333	     -1.26434188	     -2.98067682	     -2.33983718	     -0.05097585	      1.00005558	      0.35133634	    -15.50255747	      6.85279501	      3.86712370	     -7.72902151	     16.41388548	     -2.07648208	      1.71857322	     22.10765059	     -3.71548393	      1.09380550	      6.30339621	      1.97887936	     -7.45088439	     -0.59160121	     -1.92054920	      0.80686258	      7.44490437
      1.18300000	     -1.22558681	     -2.75538231	     -2.40638008	     -0.04513689	      0.99937954	      0.35084710	    -15.64290764	      6.56268518	      3.80828774	     -8.23017040	     16.63076292	     -1.92053879	      1.69439005	     22.22928059	     -3.41738272	      1.18277726	      5.47120401	      2.07635559	     -7.46446369	     -0.40884631	     -1.90904342	      0.53779710	      7.60991289
      1.18716667	     -1.16082103	     -2.54801273	     -2.47755387	     -0.03931371	      0.99877525	      0.35036748	    -15.79744576	      6.29912583	      3.81851813	     -8.75092942	     16.68765353	     -2.03081371	      1.69073770	     22.32413783	     -3.13913837	      1.28353235	      4.61181103	      2.08397515	     -7.59922414	     -0.35909581	     -1.95904760	      0.31871846	      7.64535060
      1.19133333	     -1.12304007	     -2.31773401	     -2.53791832	     -0.03342361	      0.99814892	      0.34984080	    -15.88920479	      6.00567378	      3.70317168	     -9.35039414	     16.88373886	     -1.84040996	      1.68318365	     22.46837744	     -2.83130054	      1.31439393	      3.68387921	      2.06775743	     -7.62730092	      0.05041096	     -1.91764388	      0.03774718	      7.84489493
      1.19550000	     -1.04837859	     -2.08519670	     -2.57809631	     -0.02750223	      0.99760381	      0.34931738	    -16.04906678	      5.72967372	      3.72931240	     -9.88515636	     16.89402230	     -2.00480931	      1.68404763	     22.56441037	     -2.51582482	      1.41491716	      2.75758770	      1.98908640	     -7.77312502	      0.11840881	     -1.96045472	     -0.23027304	      7.85498929
      1.19966667	     -0.98494737	     -1.84898447	     -2.61417295	     -0.02154047	      0.99707729	      0.34876412	    -16.17998629	      5.45133914	      3.74030625	    -10.45563023	     16.88251616	     -2.15038332	      1.68913790	     22.67673328	     -2.19386005	      1.49774047	      1.80945491	      1.84123110	     -7.91891587	      0.19193591	     -1.97726473	     -0.50285414	      7.88662624
      1.20383333	     -0.87629145	     -1.59332400	     -2.63693233	     -0.01552820	      0.99663725	      0.34817182	    -16.33747275	      5.14621328	      3.65769259	    -11.07177364	     16.88040551	     -2.11668806	      2.13324526	     22.71381108	     -1.84371464	      1.64247974	      0.92004436	      1.41431168	     -8.31987457	      3.48964388	     -2.03673098	     -0.82584392	      7.93604691
